<?xml version="1.0" encoding="utf-8"?>
<!-- Generator: Adobe Illustrator 22.1.0, SVG Export Plug-In . SVG Version: 6.00 Build 0)  -->
<svg version="1.1" id="图层_1" xmlns="http://www.w3.org/2000/svg" xmlns:xlink="http://www.w3.org/1999/xlink" x="0px" y="0px"
	 viewBox="0 0 404 359.3" style="enable-background:new 0 0 404 359.3;" xml:space="preserve">
<style type="text/css">
	.st0{fill:#446BF8;}
	.st1{opacity:0.5;fill:#FFFFFF;}
	.st2{fill:none;stroke:#446BF8;stroke-width:3;stroke-linecap:round;stroke-linejoin:round;}
	.st3{fill:none;}
</style>
<g>
	<path class="st0" d="M109.7,352.9c-32.9-15.3-60.8-39.9-80.2-71C10,250.9-0.2,214.7,0,177.9c0.3-36.8,11-72.8,30.9-103.6
		c19.9-30.8,48.1-55,81.2-69.8c5.7-2.5,11.9-3.8,18.1-3.8c13.9,0.1,26.9,6.8,35.2,18.2c27.7,38,55.5,76.1,83.2,114.1
		c20.3,27.8,20,65.9-0.6,93.4c-28.3,37.6-56.5,75.3-84.8,112.9C150.6,356,128.4,361.7,109.7,352.9z M150.5,189
		c4.3,17,19.3,28.9,36.6,29.1c10.1,0.1,19.8-3.9,27-11.2c7.2-7.2,11.3-17.1,11.3-27.4c0.1-10.3-3.9-20.2-11-27.5
		c-7.1-7.3-16.8-11.5-26.9-11.6c-17.3-0.1-32.4,11.6-37,28.5c-1.5,0-3.1,0-4.6,0c0,6.7-0.1,13.4-0.1,20C147.4,189,149,189,150.5,189
		z"/>
	<path class="st2" d="M208.2,299.9c9.7,13.3,19.3,26.5,29,39.8c8.3,11.4,21.3,18.1,35.2,18.2c6.2,0,12.4-1.3,18.1-3.8
		c33.1-14.8,61.3-39.1,81.2-69.8c19.9-30.8,30.6-66.8,30.9-103.6c0.3-36.8-10-73-29.4-104c-19.5-31.1-47.3-55.7-80.2-71
		c-18.8-8.7-41-3.1-53.5,13.6c-9.9,13.2-19.8,26.4-29.7,39.5"/>
	<path class="st0" d="M303.5,42.4c3.1,0,6.2,0.5,9.1,1.4c8,2.5,14.7,8,18.6,15.6c3.9,7.5,4.8,16.5,2.4,24.6c-2.5,8.2-7.9,15-15.3,19
		c-4.5,2.5-9.6,3.8-14.8,3.8c-3.1,0-6.2-0.5-9.1-1.4c-8-2.5-14.7-8-18.6-15.6c-3.9-7.5-4.8-16.4-2.4-24.6c2.5-8.2,7.9-15,15.3-19
		C293.2,43.7,298.3,42.4,303.5,42.4 M303.5,36.4c-6.1,0-12.2,1.5-17.6,4.5c-8.8,4.8-15.3,12.9-18.2,22.6c-2.9,9.7-1.9,20.1,2.8,29.1
		c4.7,8.9,12.7,15.6,22.2,18.5c3.6,1.1,7.2,1.6,10.9,1.6c6.1,0,12.2-1.5,17.7-4.5c8.8-4.8,15.3-12.9,18.2-22.6
		c2.9-9.7,1.9-20.1-2.8-29.1c-4.7-8.9-12.7-15.6-22.2-18.5C310.8,36.9,307.1,36.4,303.5,36.4L303.5,36.4z"/>
	<path class="st0" d="M301.9,253.1c5.3,0,10.5,1.4,15.2,4c7.4,4.1,12.7,11,15.1,19.2c2.3,8.2,1.3,17.1-2.7,24.5
		c-4.1,7.5-10.8,13-18.8,15.3c-2.8,0.8-5.8,1.3-8.7,1.3c-5.3,0-10.5-1.4-15.2-4c-7.4-4.1-12.7-11-15.1-19.2
		c-2.3-8.2-1.3-17.1,2.7-24.5c4.1-7.5,10.8-13,18.8-15.3C296.1,253.5,299,253.1,301.9,253.1 M301.9,247.1c-3.5,0-7,0.5-10.4,1.5
		c-9.5,2.8-17.6,9.4-22.4,18.2c-4.8,8.9-6,19.3-3.2,29c2.8,9.7,9.2,17.9,17.9,22.8c5.6,3.1,11.8,4.8,18.1,4.8c3.5,0,7-0.5,10.4-1.5
		c9.5-2.8,17.6-9.4,22.4-18.2c4.8-8.9,6-19.3,3.2-29c-2.8-9.7-9.2-17.9-17.9-22.8C314.5,248.7,308.2,247.1,301.9,247.1L301.9,247.1z
		"/>
	<path class="st0" d="M352.9,148.1l0.2,0c8.4,0.1,16.3,3.4,22.2,9.5c5.8,6,9.2,14.4,9.1,22.9c-0.1,8.5-3.5,16.8-9.4,22.7
		c-5.9,5.9-13.8,9.2-22.1,9.2l-0.2,0c-8.4-0.1-16.3-3.4-22.2-9.5c-5.8-6-9.2-14.4-9.1-22.9c0.1-8.5,3.5-16.8,9.4-22.7
		C336.8,151.4,344.6,148.1,352.9,148.1 M352.9,142.1c-9.8,0-19.3,3.9-26.3,11c-7.1,7.1-11.1,16.8-11.2,26.9
		c-0.1,10.1,3.8,19.9,10.8,27.1c7,7.2,16.5,11.3,26.4,11.4c0.1,0,0.2,0,0.3,0c9.8,0,19.3-3.9,26.3-11c7.1-7.1,11.1-16.8,11.2-26.9
		c0.1-10.1-3.8-19.9-10.8-27.1c-7-7.2-16.5-11.3-26.4-11.4C353.1,142.1,353,142.1,352.9,142.1L352.9,142.1z"/>
	<path class="st1" d="M93.7,316.9c-4,0-7.9-0.6-11.8-1.8h0c-10.3-3.2-18.8-10.3-23.9-20c-5.1-9.7-6.2-20.8-3-31.3
		c3.1-10.5,10.1-19.2,19.6-24.4c9.5-5.2,20.5-6.3,30.9-3.1c10.3,3.2,18.8,10.3,23.9,20c5.1,9.7,6.2,20.8,3,31.3
		c-3.1,10.5-10.1,19.2-19.6,24.4C106.8,315.3,100.3,316.9,93.7,316.9z M83.6,309.4c8.8,2.7,18.1,1.8,26.2-2.6
		c8.1-4.4,14.1-11.8,16.8-20.8c2.7-9,1.8-18.5-2.6-26.8c-4.3-8.3-11.6-14.3-20.4-17.1c-8.8-2.7-18.1-1.8-26.2,2.6
		c-8.1,4.4-14.1,11.8-16.8,20.8c-2.6,8.9-1.7,18.6,2.6,26.8C67.6,300.6,74.8,306.7,83.6,309.4L83.6,309.4z"/>
	<path class="st1" d="M95.1,122.6c-6.8,0-13.4-1.7-19.5-5.2c-9.5-5.3-16.3-14.1-19.3-24.6c-3-10.6-1.8-21.7,3.4-31.3
		c5.2-9.6,13.8-16.6,24.2-19.7c0,0,0,0,0,0c10.4-3.1,21.3-1.8,30.8,3.5c9.5,5.3,16.3,14.1,19.3,24.6c3,10.6,1.8,21.7-3.4,31.3
		c-5.2,9.6-13.8,16.6-24.2,19.7C102.7,122.1,98.9,122.6,95.1,122.6z M85.6,47.6c-8.8,2.6-16.2,8.6-20.6,16.8
		c-4.5,8.2-5.5,17.8-3,26.8c2.6,9,8.4,16.5,16.5,21c8,4.5,17.4,5.6,26.2,3c8.8-2.6,16.2-8.6,20.6-16.8c4.5-8.2,5.5-17.7,3-26.8
		c-2.6-9-8.4-16.5-16.5-21C103.8,46.1,94.5,45,85.6,47.6L85.6,47.6z"/>
	<path class="st1" d="M52.3,219.4c-0.1,0-0.2,0-0.3,0c-10.8-0.1-21-4.4-28.6-12.3c-7.6-7.8-11.7-18.2-11.6-29.2
		c0.1-11,4.3-21.3,12-29c7.7-7.7,18-12,28.7-11.9l0,0c10.8,0.1,21,4.4,28.6,12.3c7.6,7.8,11.7,18.2,11.6,29.2
		c-0.1,11-4.4,21.3-12,29C73.1,215.2,63,219.4,52.3,219.4z M52.3,143c-9.1,0-17.7,3.6-24.2,10.1c-6.6,6.6-10.2,15.4-10.3,24.8
		c-0.1,9.4,3.5,18.3,9.9,25c6.5,6.7,15.1,10.4,24.3,10.5c0.1,0,0.2,0,0.2,0c9.1,0,17.7-3.6,24.2-10.1c6.6-6.6,10.2-15.4,10.3-24.8
		c0.1-9.4-3.5-18.3-9.9-25c-6.5-6.7-15.1-10.4-24.3-10.5C52.5,143,52.4,143,52.3,143z"/>
</g>
</svg>
